<mxfile host="Electron" agent="Mozilla/5.0 (Macintosh; Intel Mac OS X 10_15_7) AppleWebKit/537.36 (KHTML, like Gecko) draw.io/24.7.5 Chrome/126.0.6478.183 Electron/31.3.0 Safari/537.36" version="24.7.5">
  <diagram name="Page-1" id="CBE78i1MIA8Uapu95Ihd">
    <mxGraphModel dx="1026" dy="681" grid="1" gridSize="10" guides="1" tooltips="1" connect="1" arrows="1" fold="1" page="1" pageScale="1" pageWidth="827" pageHeight="1169" math="0" shadow="0">
      <root>
        <mxCell id="0" />
        <mxCell id="1" parent="0" />
        <mxCell id="pLyZwugCfBof67cWC06u-12" style="edgeStyle=orthogonalEdgeStyle;rounded=0;orthogonalLoop=1;jettySize=auto;html=1;exitX=1;exitY=0;exitDx=0;exitDy=0;entryX=0.5;entryY=1;entryDx=0;entryDy=0;" edge="1" parent="1" source="pLyZwugCfBof67cWC06u-1" target="pLyZwugCfBof67cWC06u-6">
          <mxGeometry relative="1" as="geometry" />
        </mxCell>
        <mxCell id="pLyZwugCfBof67cWC06u-13" style="edgeStyle=orthogonalEdgeStyle;rounded=0;orthogonalLoop=1;jettySize=auto;html=1;exitX=1;exitY=1;exitDx=0;exitDy=0;entryX=0.5;entryY=0;entryDx=0;entryDy=0;" edge="1" parent="1" source="pLyZwugCfBof67cWC06u-1" target="pLyZwugCfBof67cWC06u-9">
          <mxGeometry relative="1" as="geometry" />
        </mxCell>
        <mxCell id="pLyZwugCfBof67cWC06u-14" style="edgeStyle=orthogonalEdgeStyle;rounded=0;orthogonalLoop=1;jettySize=auto;html=1;exitX=1;exitY=0.5;exitDx=0;exitDy=0;entryX=0;entryY=0.5;entryDx=0;entryDy=0;" edge="1" parent="1" source="pLyZwugCfBof67cWC06u-1" target="pLyZwugCfBof67cWC06u-8">
          <mxGeometry relative="1" as="geometry" />
        </mxCell>
        <mxCell id="pLyZwugCfBof67cWC06u-1" value="Pool&lt;div&gt;Derived from a title&lt;/div&gt;&lt;div&gt;&quot;Who will win the elections?&quot;&lt;/div&gt;" style="rounded=0;whiteSpace=wrap;html=1;fillColor=#FFFF00;" vertex="1" parent="1">
          <mxGeometry x="40" y="210" width="170" height="80" as="geometry" />
        </mxCell>
        <mxCell id="pLyZwugCfBof67cWC06u-2" value="&lt;h1 style=&quot;margin-top: 0px;&quot;&gt;&lt;span style=&quot;background-color: initial;&quot;&gt;PDAs in Yellow&lt;/span&gt;&lt;br&gt;&lt;/h1&gt;" style="text;html=1;whiteSpace=wrap;overflow=hidden;rounded=0;fillColor=#FFFF00;" vertex="1" parent="1">
          <mxGeometry x="50" y="20" width="110" height="70" as="geometry" />
        </mxCell>
        <mxCell id="pLyZwugCfBof67cWC06u-17" style="edgeStyle=orthogonalEdgeStyle;rounded=0;orthogonalLoop=1;jettySize=auto;html=1;exitX=1;exitY=0.5;exitDx=0;exitDy=0;entryX=0.5;entryY=1;entryDx=0;entryDy=0;" edge="1" parent="1" source="pLyZwugCfBof67cWC06u-5" target="pLyZwugCfBof67cWC06u-9">
          <mxGeometry relative="1" as="geometry" />
        </mxCell>
        <mxCell id="pLyZwugCfBof67cWC06u-5" value="Admin Account" style="rounded=0;whiteSpace=wrap;html=1;fillColor=#FF6666;" vertex="1" parent="1">
          <mxGeometry x="60" y="400" width="120" height="60" as="geometry" />
        </mxCell>
        <mxCell id="pLyZwugCfBof67cWC06u-19" style="edgeStyle=orthogonalEdgeStyle;rounded=0;orthogonalLoop=1;jettySize=auto;html=1;exitX=1;exitY=0.5;exitDx=0;exitDy=0;entryX=0;entryY=0.5;entryDx=0;entryDy=0;" edge="1" parent="1" source="pLyZwugCfBof67cWC06u-6" target="pLyZwugCfBof67cWC06u-18">
          <mxGeometry relative="1" as="geometry" />
        </mxCell>
        <mxCell id="pLyZwugCfBof67cWC06u-6" value="Option&lt;div&gt;Derived from Pool Key + option title&lt;/div&gt;&lt;div&gt;&quot;Trump&quot;&lt;/div&gt;" style="rounded=0;whiteSpace=wrap;html=1;fillColor=#FFFF00;" vertex="1" parent="1">
          <mxGeometry x="250" y="100" width="120" height="60" as="geometry" />
        </mxCell>
        <mxCell id="pLyZwugCfBof67cWC06u-8" value="Option&lt;div&gt;Derived from Pool Key + option title&lt;/div&gt;&lt;div&gt;&quot;Harris&quot;&lt;/div&gt;" style="rounded=0;whiteSpace=wrap;html=1;fillColor=#FFFF00;" vertex="1" parent="1">
          <mxGeometry x="250" y="220" width="120" height="60" as="geometry" />
        </mxCell>
        <mxCell id="pLyZwugCfBof67cWC06u-25" style="edgeStyle=orthogonalEdgeStyle;rounded=0;orthogonalLoop=1;jettySize=auto;html=1;exitX=1;exitY=0.5;exitDx=0;exitDy=0;entryX=0;entryY=0.5;entryDx=0;entryDy=0;" edge="1" parent="1" source="pLyZwugCfBof67cWC06u-9" target="pLyZwugCfBof67cWC06u-22">
          <mxGeometry relative="1" as="geometry" />
        </mxCell>
        <mxCell id="pLyZwugCfBof67cWC06u-9" value="Option&lt;div&gt;Derived from Pool Key + option title&lt;/div&gt;&lt;div&gt;&quot;Other&quot;&lt;/div&gt;" style="rounded=0;whiteSpace=wrap;html=1;fillColor=#FFFF00;" vertex="1" parent="1">
          <mxGeometry x="250" y="330" width="120" height="60" as="geometry" />
        </mxCell>
        <mxCell id="pLyZwugCfBof67cWC06u-16" style="edgeStyle=orthogonalEdgeStyle;rounded=0;orthogonalLoop=1;jettySize=auto;html=1;exitX=0.5;exitY=0;exitDx=0;exitDy=0;entryX=0.465;entryY=1.038;entryDx=0;entryDy=0;entryPerimeter=0;" edge="1" parent="1" source="pLyZwugCfBof67cWC06u-5" target="pLyZwugCfBof67cWC06u-1">
          <mxGeometry relative="1" as="geometry" />
        </mxCell>
        <mxCell id="pLyZwugCfBof67cWC06u-18" value="Entry&lt;div&gt;Derived from Option &amp;amp; Entrant&lt;/div&gt;" style="rounded=0;whiteSpace=wrap;html=1;fillColor=#FFFF00;" vertex="1" parent="1">
          <mxGeometry x="470" y="60" width="120" height="60" as="geometry" />
        </mxCell>
        <mxCell id="pLyZwugCfBof67cWC06u-21" style="edgeStyle=orthogonalEdgeStyle;rounded=0;orthogonalLoop=1;jettySize=auto;html=1;exitX=0;exitY=0.5;exitDx=0;exitDy=0;entryX=1;entryY=0.5;entryDx=0;entryDy=0;" edge="1" parent="1" source="pLyZwugCfBof67cWC06u-20" target="pLyZwugCfBof67cWC06u-18">
          <mxGeometry relative="1" as="geometry" />
        </mxCell>
        <mxCell id="pLyZwugCfBof67cWC06u-23" style="edgeStyle=orthogonalEdgeStyle;rounded=0;orthogonalLoop=1;jettySize=auto;html=1;exitX=0.5;exitY=1;exitDx=0;exitDy=0;entryX=1;entryY=0.5;entryDx=0;entryDy=0;" edge="1" parent="1" source="pLyZwugCfBof67cWC06u-20" target="pLyZwugCfBof67cWC06u-22">
          <mxGeometry relative="1" as="geometry" />
        </mxCell>
        <mxCell id="pLyZwugCfBof67cWC06u-20" value="Entrant Account" style="rounded=0;whiteSpace=wrap;html=1;fillColor=#FF6666;" vertex="1" parent="1">
          <mxGeometry x="700" y="70" width="110" height="60" as="geometry" />
        </mxCell>
        <mxCell id="pLyZwugCfBof67cWC06u-22" value="Entry&lt;div&gt;Derived from Option &amp;amp; Entrant&lt;/div&gt;" style="rounded=0;whiteSpace=wrap;html=1;fillColor=#FFFF00;" vertex="1" parent="1">
          <mxGeometry x="460" y="330" width="120" height="60" as="geometry" />
        </mxCell>
        <mxCell id="pLyZwugCfBof67cWC06u-26" value="&lt;h1 style=&quot;margin-top: 0px;&quot;&gt;User Accounts in Red&lt;/h1&gt;" style="text;html=1;whiteSpace=wrap;overflow=hidden;rounded=0;fillColor=#FF6666;" vertex="1" parent="1">
          <mxGeometry x="50" y="100" width="120" height="90" as="geometry" />
        </mxCell>
      </root>
    </mxGraphModel>
  </diagram>
</mxfile>
